<!-- Same mark as src/ui/icons/logo.svg, plus the standalone theming the inlined
     copy gets from CSS: an internal style pinning color to the two accent token
     values (tokens.css) by browser theme. --><svg width="16" height="16" viewBox="1.6 1.6 12.8 12.8" xmlns="http://www.w3.org/2000/svg"><style>:root{color:#d8821a}@media(prefers-color-scheme:dark){:root{color:#ffb454}}</style><defs><mask id="traces"><rect width="16" height="16" fill="#fff"/><g transform="rotate(45 8 8)" fill="#000"><path stroke="#000" stroke-width="1" fill="none" d="M5.8 6.6v3.2M8 5.4v5.2M10.2 6.2v3.2"/><circle cx="5.8" cy="6.6" r=".85"/><circle cx="8" cy="5.4" r=".85"/><circle cx="8" cy="10.6" r=".85"/><circle cx="10.2" cy="9.4" r=".85"/></g></mask></defs><path transform="rotate(45 8 8)" stroke="currentColor" stroke-width="1.2" fill="none" d="M5.8 4.4V2.4M8 4.4V2.4M10.2 4.4V2.4M5.8 11.6v2M8 11.6v2M10.2 11.6v2M4.4 5.8H2.4M4.4 8H2.4M4.4 10.2H2.4M11.6 5.8h2M11.6 8h2M11.6 10.2h2"/><path fill="currentColor" mask="url(#traces)" d="M8 1.8 14.2 8 8 14.2 1.8 8Z"/></svg>